<?xml version="1.0" encoding="UTF-8" standalone="no"?><!DOCTYPE svg PUBLIC "-//W3C//DTD SVG 1.1//EN" "http://www.w3.org/Graphics/SVG/1.1/DTD/svg11.dtd"><svg width="100%" height="100%" viewBox="0 0 100 100" version="1.1" xmlns="http://www.w3.org/2000/svg" xmlns:xlink="http://www.w3.org/1999/xlink" xml:space="preserve" xmlns:serif="http://www.serif.com/" style="fill-rule:evenodd;clip-rule:evenodd;stroke-linejoin:round;stroke-miterlimit:2;"><path d="M47.8,56.4c-1.9,0 -3.8,-0.8 -5,-2.4c-2.2,-2.8 -1.8,-6.9 1,-9.1l35.1,-28.2c2.8,-2.2 6.9,-1.8 9.1,1c2.2,2.8 1.8,6.9 -1,9.1l-35.2,28.1c-1.2,1 -2.6,1.5 -4,1.5Z" style="fill:#fff;fill-rule:nonzero;"/><path d="M82.9,84.6c-1.4,-0 -2.9,-0.5 -4,-1.4l-35.2,-28.3c-2.8,-2.2 -3.2,-6.3 -1,-9.1c2.2,-2.8 6.3,-3.2 9.1,-1l35.1,28.2c2.8,2.2 3.2,6.3 1,9.1c-1.3,1.7 -3.1,2.5 -5,2.5Z" style="fill:#fff;fill-rule:nonzero;"/><path d="M15.8,56.4c-1.9,0 -3.8,-0.8 -5,-2.4c-2.2,-2.8 -1.8,-6.9 1,-9.1l35.1,-28.2c2.8,-2.2 6.9,-1.8 9.1,1c2.2,2.8 1.8,6.9 -1,9.1l-35.2,28.1c-1.2,1 -2.6,1.5 -4,1.5Z" style="fill:#fff;fill-rule:nonzero;"/><path d="M50.9,84.6c-1.4,-0 -2.9,-0.5 -4,-1.4l-35.2,-28.3c-2.8,-2.2 -3.2,-6.3 -1,-9.1c2.2,-2.8 6.3,-3.2 9.1,-1l35.1,28.2c2.8,2.2 3.2,6.3 1,9.1c-1.3,1.7 -3.1,2.5 -5,2.5Z" style="fill:#fff;fill-rule:nonzero;"/></svg>