<?xml version="1.0" encoding="UTF-8" standalone="no"?>
<!DOCTYPE svg PUBLIC "-//W3C//DTD SVG 1.1//EN" "http://www.w3.org/Graphics/SVG/1.1/DTD/svg11.dtd">
<svg width="100%" height="100%" viewBox="0 0 100 100" version="1.1" xmlns="http://www.w3.org/2000/svg" xmlns:xlink="http://www.w3.org/1999/xlink" xml:space="preserve" xmlns:serif="http://www.serif.com/" style="fill-rule:evenodd;clip-rule:evenodd;stroke-linejoin:round;stroke-miterlimit:2;">
    <g transform="matrix(-1,-1.22515e-16,1.22515e-16,-1,98.6576,99.9177)">
        <path d="M31.8,56.4C29.9,56.4 28,55.6 26.8,54C24.6,51.2 25,47.1 27.8,44.9L62.9,16.7C65.7,14.5 69.8,14.9 72,17.7C74.2,20.5 73.8,24.6 71,26.8L35.8,54.9C34.6,55.9 33.2,56.4 31.8,56.4Z" style="fill:rgb(90,98,108);fill-rule:nonzero;"/>
    </g>
    <g transform="matrix(-1,-1.22515e-16,1.22515e-16,-1,98.6576,99.9177)">
        <path d="M66.9,84.6C65.5,84.6 64,84.1 62.9,83.2L27.7,54.9C24.9,52.7 24.5,48.6 26.7,45.8C28.9,43 33,42.6 35.8,44.8L70.9,73C73.7,75.2 74.1,79.3 71.9,82.1C70.6,83.8 68.8,84.6 66.9,84.6Z" style="fill:rgb(90,98,108);fill-rule:nonzero;"/>
    </g>
</svg>
