<?xml version="1.0" encoding="UTF-8" standalone="no"?>
<!DOCTYPE svg PUBLIC "-//W3C//DTD SVG 1.1//EN" "http://www.w3.org/Graphics/SVG/1.1/DTD/svg11.dtd">
<svg width="100%" height="100%" viewBox="0 0 100 100" version="1.1" xmlns="http://www.w3.org/2000/svg" xmlns:xlink="http://www.w3.org/1999/xlink" xml:space="preserve" xmlns:serif="http://www.serif.com/" style="fill-rule:evenodd;clip-rule:evenodd;stroke-linejoin:round;stroke-miterlimit:2;">
    <path d="M51.4,27.9C53.3,27.9 55.2,28.7 56.4,30.3L84.6,65.4C86.8,68.2 86.4,72.3 83.6,74.5C80.8,76.7 76.7,76.3 74.5,73.5L46.3,38.4C44.1,35.6 44.5,31.5 47.3,29.3C48.5,28.3 50,27.9 51.4,27.9Z" style="fill:rgb(90,98,108);fill-rule:nonzero;"/>
    <path d="M51.4,27.9C52.8,27.9 54.3,28.4 55.4,29.3C58.2,31.5 58.6,35.6 56.4,38.4L28.2,73.5C26,76.3 21.9,76.7 19.1,74.5C16.3,72.3 15.9,68.2 18.1,65.4L46.3,30.3C47.6,28.7 49.5,27.9 51.4,27.9Z" style="fill:rgb(90,98,108);fill-rule:nonzero;"/>
</svg>
