<?xml version="1.0" encoding="UTF-8" standalone="no"?>
<!DOCTYPE svg PUBLIC "-//W3C//DTD SVG 1.1//EN" "http://www.w3.org/Graphics/SVG/1.1/DTD/svg11.dtd">
<svg width="100%" height="100%" viewBox="0 0 100 100" version="1.1" xmlns="http://www.w3.org/2000/svg" xmlns:xlink="http://www.w3.org/1999/xlink" xml:space="preserve" xmlns:serif="http://www.serif.com/" style="fill-rule:evenodd;clip-rule:evenodd;stroke-linejoin:round;stroke-miterlimit:2;">
    <g id="Outline">
        <g>
            <path d="M26.5,74.2C26.5,77.9 29.5,81 33.3,81L67.1,81C70.8,81 73.9,78 73.9,74.2L73.9,33.7L26.5,33.7L26.5,74.2ZM33.3,40.4L67.1,40.4L67.1,74.2L33.3,74.2L33.3,40.4Z" style="fill:white;fill-rule:nonzero;"/>
            <path d="M60.3,23.5L60.3,16.8L40.1,16.8L40.1,23.5L19.8,23.5L19.8,30.3L80.6,30.3L80.6,23.5L60.3,23.5Z" style="fill:white;fill-rule:nonzero;"/>
            <rect x="40.1" y="47.2" width="6.8" height="20.3" style="fill:white;"/>
            <rect x="53.6" y="47.2" width="6.8" height="20.3" style="fill:white;"/>
        </g>
    </g>
</svg>
