<?xml version="1.0" encoding="UTF-8" standalone="no"?>
<!DOCTYPE svg PUBLIC "-//W3C//DTD SVG 1.1//EN" "http://www.w3.org/Graphics/SVG/1.1/DTD/svg11.dtd">
<svg width="100%" height="100%" viewBox="0 0 100 100" version="1.1" xmlns="http://www.w3.org/2000/svg" xmlns:xlink="http://www.w3.org/1999/xlink" xml:space="preserve" xmlns:serif="http://www.serif.com/" style="fill-rule:evenodd;clip-rule:evenodd;stroke-linejoin:round;stroke-miterlimit:2;">
    <path d="M41.5,67.6C27.1,67.6 15.4,55.9 15.4,41.5C15.4,27.1 27.1,15.4 41.5,15.4C55.9,15.4 67.6,27.1 67.6,41.5C67.6,55.9 55.9,67.6 41.5,67.6ZM41.5,22.4C31,22.4 22.4,31 22.4,41.5C22.4,52 31,60.6 41.5,60.6C52,60.6 60.6,52 60.6,41.5C60.6,31 52,22.4 41.5,22.4Z" style="fill:white;fill-rule:nonzero;"/>
    <path d="M84.4,79.8L64.2,60.6C62.8,62.3 61.1,63.8 59.4,65.2L79.9,84.6C80.5,85.2 81.4,85.5 82.2,85.5C83.1,85.5 84,85.2 84.6,84.5C85.8,83.2 85.7,81.1 84.4,79.8Z" style="fill:white;fill-rule:nonzero;"/>
</svg>
